<?xml version="1.0" standalone="no"?>
<!DOCTYPE svg PUBLIC "-//W3C//DTD SVG 20010904//EN"
 "http://www.w3.org/TR/2001/REC-SVG-20010904/DTD/svg10.dtd">
<svg version="1.0" xmlns="http://www.w3.org/2000/svg"
 width="272.000000pt" height="272.000000pt" viewBox="0 0 272.000000 272.000000"
 preserveAspectRatio="xMidYMid meet">
<metadata>
Created by potrace 1.11, written by Peter Selinger 2001-2013
</metadata>
<g transform="translate(0.000000,272.000000) scale(0.100000,-0.100000)"
fill="#000000" stroke="none">
<path d="M1157 2704 c-467 -72 -860 -376 -1046 -810 -153 -355 -146 -765 19
-1111 189 -397 543 -672 977 -760 131 -26 393 -24 530 5 537 115 955 539 1058
1075 93 481 -86 986 -461 1296 -307 254 -696 365 -1077 305z m212 -1152 l234
-267 -121 -3 -122 -3 0 -189 0 -190 -235 0 -235 0 0 190 0 189 -118 3 -119 3
236 267 c130 147 238 267 241 267 3 0 110 -121 239 -267z m642 161 c-16 -43
-89 -243 -162 -445 l-134 -368 -54 0 c-47 0 -52 2 -46 18 3 9 77 209 163 445
l156 427 53 0 52 0 -28 -77z"/>
<path d="M996 1528 l-126 -143 60 -3 60 -3 0 -194 0 -195 140 0 140 0 0 195 0
194 59 3 58 3 -123 140 c-68 77 -128 141 -133 143 -5 2 -65 -61 -135 -140z"/>
</g>
</svg>
